<svg viewBox="0 0 200 200" xmlns="http://www.w3.org/2000/svg">
  <!-- Fond dégradé bleu -->
  <defs>
    <linearGradient id="bgGrad" x1="0%" y1="0%" x2="100%" y2="100%">
      <stop offset="0%" style="stop-color:#87CEEB;stop-opacity:1" />
      <stop offset="100%" style="stop-color:#E0FFFF;stop-opacity:1" />
    </linearGradient>
  </defs>
  <rect width="200" height="200" fill="url(#bgGrad)"/>
  
  <!-- Calamur Tentacules -->
  <!-- Tête (rond) -->
  <circle cx="100" cy="70" r="35" fill="#C39BD3" stroke="#6B3E7D" stroke-width="2"/>
  
  <!-- Yeux (fermés grognon) -->
  <path d="M 82 60 Q 85 65 88 60" stroke="black" stroke-width="2" fill="none" stroke-linecap="round"/>
  <path d="M 112 60 Q 115 65 118 60" stroke="black" stroke-width="2" fill="none" stroke-linecap="round"/>
  
  <!-- Sourcils froncés -->
  <path d="M 80 55 Q 85 52 90 55" stroke="black" stroke-width="1.5" fill="none"/>
  <path d="M 110 55 Q 115 52 120 55" stroke="black" stroke-width="1.5" fill="none"/>
  
  <!-- Bouche énervée -->
  <path d="M 90 80 Q 100 75 110 80" stroke="black" stroke-width="2" fill="none" stroke-linecap="round"/>
  
  <!-- Tentacules -->
  <path d="M 70 100 Q 50 120 55 150" stroke="#B19CD9" stroke-width="8" fill="none" stroke-linecap="round"/>
  <path d="M 130 100 Q 150 120 145 150" stroke="#B19CD9" stroke-width="8" fill="none" stroke-linecap="round"/>
  <path d="M 90 105 Q 85 130 90 160" stroke="#B19CD9" stroke-width="8" fill="none" stroke-linecap="round"/>
  <path d="M 110 105 Q 115 130 110 160" stroke="#B19CD9" stroke-width="8" fill="none" stroke-linecap="round"/>
  
  <!-- Badge Commun -->
  <circle cx="170" cy="30" r="18" fill="#10B981" stroke="#059669" stroke-width="2"/>
  <text x="170" y="38" font-size="18" font-weight="bold" text-anchor="middle" fill="white">🌊</text>
</svg>