<svg viewBox="0 0 200 200" xmlns="http://www.w3.org/2000/svg">
  <!-- Fond dégradé bleu -->
  <defs>
    <linearGradient id="bgGrad" x1="0%" y1="0%" x2="100%" y2="100%">
      <stop offset="0%" style="stop-color:#87CEEB;stop-opacity:1" />
      <stop offset="100%" style="stop-color:#E0FFFF;stop-opacity:1" />
    </linearGradient>
  </defs>
  <rect width="200" height="200" fill="url(#bgGrad)"/>
  
  <!-- Capitaine Crochet -->
  <!-- Chapeau pirate -->
  <path d="M 60 50 L 140 50 Q 145 50 145 55 L 140 65 L 60 65 L 55 55 Q 55 50 60 50" fill="black" stroke="black" stroke-width="1"/>
  <polygon points="70,65 80,30 90,65" fill="gold"/>
  
  <!-- Tête -->
  <circle cx="100" cy="85" r="25" fill="#DEB887" stroke="#8B7355" stroke-width="2"/>
  
  <!-- Yeux perçants -->
  <circle cx="88" cy="78" r="5" fill="white" stroke="black" stroke-width="1"/>
  <circle cx="112" cy="78" r="5" fill="white" stroke="black" stroke-width="1"/>
  <circle cx="88" cy="78" r="2" fill="red"/>
  <circle cx="112" cy="78" r="2" fill="red"/>
  
  <!-- Barbe -->
  <path d="M 80 95 Q 100 110 120 95" stroke="#654321" stroke-width="3" fill="none" stroke-linecap="round"/>
  
  <!-- Crochet au lieu de main -->
  <path d="M 75 90 Q 60 85 55 100 Q 60 110 75 105" stroke="#CD853F" stroke-width="4" fill="none" stroke-linecap="round"/>
  
  <!-- Veste rouge -->
  <rect x="65" y="110" width="70" height="50" fill="#DC143C" stroke="#8B0000" stroke-width="1"/>
  <circle cx="75" cy="120" r="4" fill="gold"/>
  <circle cx="125" cy="120" r="4" fill="gold"/>
  
  <!-- Badge Rare -->
  <circle cx="170" cy="30" r="18" fill="#3B82F6" stroke="#1D40AF" stroke-width="2"/>
  <text x="170" y="38" font-size="20" font-weight="bold" text-anchor="middle" fill="white">💎</text>
</svg>