<svg viewBox="0 0 200 200" xmlns="http://www.w3.org/2000/svg">
  <!-- Fond dégradé bleu -->
  <defs>
    <linearGradient id="bgGrad" x1="0%" y1="0%" x2="100%" y2="100%">
      <stop offset="0%" style="stop-color:#87CEEB;stop-opacity:1" />
      <stop offset="100%" style="stop-color:#E0FFFF;stop-opacity:1" />
    </linearGradient>
  </defs>
  <rect width="200" height="200" fill="url(#bgGrad)"/>
  
  <!-- Patrick l'étoile de mer -->
  <!-- Corps en forme d'étoile -->
  <polygon points="100,30 130,60 160,60 135,85 150,120 100,90 50,120 65,85 40,60 70,60" fill="#FF69B4" stroke="#C71585" stroke-width="2"/>
  
  <!-- Yeux -->
  <circle cx="85" cy="65" r="6" fill="white" stroke="black" stroke-width="1"/>
  <circle cx="115" cy="65" r="6" fill="white" stroke="black" stroke-width="1"/>
  <circle cx="85" cy="65" r="3" fill="black"/>
  <circle cx="115" cy="65" r="3" fill="black"/>
  
  <!-- Sourire content -->
  <path d="M 90 80 Q 100 88 110 80" stroke="black" stroke-width="2" fill="none" stroke-linecap="round"/>
  
  <!-- Texture spots -->
  <circle cx="80" cy="50" r="2" fill="#FF1493" opacity="0.6"/>
  <circle cx="100" cy="45" r="2" fill="#FF1493" opacity="0.6"/>
  <circle cx="120" cy="50" r="2" fill="#FF1493" opacity="0.6"/>
  <circle cx="75" cy="75" r="2" fill="#FF1493" opacity="0.6"/>
  <circle cx="125" cy="75" r="2" fill="#FF1493" opacity="0.6"/>
  
  <!-- Badge Rare -->
  <circle cx="170" cy="30" r="18" fill="#3B82F6" stroke="#1D40AF" stroke-width="2"/>
  <text x="170" y="38" font-size="20" font-weight="bold" text-anchor="middle" fill="white">💎</text>
</svg>